# xmcd
#
# Track frame offsets:
#	150
#	12246
#	22037
#	33433
#	42970
#	52407
#	63084
#	73816
#	85317
#	94729
#	108919
#	117884
#	129625
#	141164
#	151278
#	164324
#	174175
#	184581
#	194171
#	206183
#	217141
#	226539
#	236422
#	246495
#	257531
#	267896
#	276840
#	287603
#	296798
#	307342
#	317329
#	325805
#
# Disc length: 4482 seconds
#
# Revision: 1
# Processed by: cddbd v1.5.2PL0 Copyright (c) Steve Scherf et al.
# Submitted via: EZCDAudioConverter 7.0.6.1
#
DISCID=e1118020
DTITLE=Various Artist - Buzzsaw Joint Cuts 1 and 2
DYEAR=2017
DGENRE=
TTITLE0=Sonny And Premiers - Flirtin'
TTITLE1=Billy Garner - Little School Girl
TTITLE2=Bobby December and The Famous Renegades - Invasion
TTITLE3=The Canjoes featuring Joe Louis Johnson - Dance The Boomerang
TTITLE4=Dennis and The Menaces - Drumble
TTITLE5=The Rumblers - I Don't Need You No More
TTITLE6=Eugene Blacknell and His Savonics - Jump Back
TTITLE7=Sammy Fitzhugh - I Feel Allright
TTITLE8=Gabriel and The Angels - Hey!
TTITLE9=Jimmy Beck and His Orchestra - Arabian Blues
TTITLE10=Johnny Acey - Please Don't Go (Back To Baltimore)
TTITLE11=The Egyptians - Inkster Boogie
TTITLE12=Rex Garvin and The Mighty Cravers - Emulsified
TTITLE13=Bunker Hill - Red Ridin't Hood And The Wolf
TTITLE14=Ray Vernon and The Raymen - Big City After Dark
TTITLE15=Lloyd Nolen - Fun Fun
TTITLE16=Cy Wagner Orchestra - Mah-Mah Limbo
TTITLE17=Shades Of Rhythm - Gumbo
TTITLE18=Dave Osborn - Shake It
TTITLE19=Whispering Pigg - Darlene
TTITLE20=The Bikinis - Fatima The Dreamer
TTITLE21=The Gimicks - Sneaky Snail
TTITLE22=J.J. Jones - Sock Dance
TTITLE23=The Pharaohs - The Green Werewolf
TTITLE24=Los Twisters - Pedro Pistolas Twist
TTITLE25=Doug Powell - Big City Walk
TTITLE26=Duke and The Ambers - Volcano
TTITLE27=Charlie Daniels - Robot Romp
TTITLE28=The Altecs - Happy Sax
TTITLE29=Billy Preston - Volcano
TTITLE30=The Merrylanders - Rattlesnake
TTITLE31=Dream Girls - Crying In The Night
EXTD=
EXTT0=
EXTT1=
EXTT2=
EXTT3=
EXTT4=
EXTT5=
EXTT6=
EXTT7=
EXTT8=
EXTT9=
EXTT10=
EXTT11=
EXTT12=
EXTT13=
EXTT14=
EXTT15=
EXTT16=
EXTT17=
EXTT18=
EXTT19=
EXTT20=
EXTT21=
EXTT22=
EXTT23=
EXTT24=
EXTT25=
EXTT26=
EXTT27=
EXTT28=
EXTT29=
EXTT30=
EXTT31=
PLAYORDER=
